<svg width="32" height="32" viewBox="0 0 32 32" fill="none" xmlns="http://www.w3.org/2000/svg">
<path d="M24.641 8.32548C23.0067 5.72282 20.9023 3.49101 19.0593 1.65129C18.9461 1.53821 18.8074 1.45396 18.6549 1.40562C18.5023 1.35727 18.3404 1.34624 18.1828 1.37345C18.0251 1.40066 17.8762 1.46532 17.7487 1.56199C17.6212 1.65866 17.5188 1.78452 17.45 1.929L13.5937 10.0273L9.5592 7.33756C9.44978 7.26461 9.32704 7.21395 9.19801 7.1885C9.06897 7.16305 8.93619 7.1633 8.80726 7.18925C8.67833 7.21519 8.55578 7.26632 8.44663 7.33969C8.33749 7.41307 8.24389 7.50726 8.1712 7.61686C5.73517 11.2891 4.5 14.6143 4.5 17.4999C4.5 20.5499 5.7116 23.475 7.86827 25.6316C10.0249 27.7883 12.95 28.9999 16 28.9999C19.05 28.9999 21.9751 27.7883 24.1317 25.6316C26.2884 23.475 27.5 20.5499 27.5 17.4999C27.5 14.3902 26.5648 11.3892 24.641 8.32548ZM23.4118 18.6525C23.1731 20.2272 22.4368 21.6842 21.3106 22.8104C20.1844 23.9367 18.7274 24.673 17.1527 24.9118C17.1018 24.9196 17.0504 24.9236 16.9988 24.9236C16.747 24.9233 16.5045 24.8279 16.3199 24.6566C16.1353 24.4853 16.0221 24.2506 16.003 23.9995C15.9838 23.7484 16.0602 23.4993 16.2167 23.302C16.3733 23.1047 16.5985 22.9737 16.8474 22.9352C17.9974 22.7499 19.0596 22.2068 19.8833 21.3832C20.7069 20.5596 21.2499 19.4973 21.4352 18.3473C21.4553 18.2175 21.5007 18.093 21.5689 17.9807C21.637 17.8685 21.7267 17.7708 21.8326 17.6932C21.9385 17.6156 22.0587 17.5596 22.1863 17.5285C22.3139 17.4973 22.4463 17.4916 22.5761 17.5116C22.7059 17.5317 22.8305 17.5771 22.9427 17.6453C23.0549 17.7134 23.1526 17.8031 23.2302 17.909C23.3078 18.0149 23.3638 18.1351 23.395 18.2627C23.4261 18.3903 23.4318 18.5227 23.4118 18.6525H23.4118Z" fill="white"/>
</svg>
