<svg width="18" height="18" viewBox="0 0 18 18" fill="none" xmlns="http://www.w3.org/2000/svg">
<path d="M14.4937 7.10107C14.4937 7.10107 14.0864 12.1523 13.8502 14.2801C13.7377 15.2963 13.1099 15.8918 12.0817 15.9106C10.1249 15.9458 8.1659 15.9481 6.2099 15.9068C5.22065 15.8866 4.6034 15.2836 4.49315 14.2853C4.2554 12.1388 3.8504 7.10107 3.8504 7.10107" stroke="#8E9C9B" stroke-width="1.5" stroke-linecap="round" stroke-linejoin="round"/>
<path d="M15.5311 4.67969H2.81262" stroke="#8E9C9B" stroke-width="1.5" stroke-linecap="round" stroke-linejoin="round"/>
<path d="M13.0804 4.67974C12.4916 4.67974 11.9846 4.26349 11.8691 3.68674L11.6869 2.77474C11.5744 2.35399 11.1934 2.06299 10.7591 2.06299H7.58437C7.15012 2.06299 6.76912 2.35399 6.65662 2.77474L6.47437 3.68674C6.35887 4.26349 5.85187 4.67974 5.26312 4.67974" stroke="#8E9C9B" stroke-width="1.5" stroke-linecap="round" stroke-linejoin="round"/>
</svg>
