<svg width="92" height="20" viewBox="0 0 92 20" fill="none" xmlns="http://www.w3.org/2000/svg">
<path d="M53.3415 12.3771L49.6823 10.8089C49.4913 10.7266 49.2827 10.6935 49.0756 10.7125C48.8684 10.7316 48.6694 10.8021 48.4965 10.9178L46.54 12.222C45.3443 11.6404 44.3765 10.6769 43.7896 9.48372L43.7898 9.48357L45.0894 7.49779C45.2025 7.32539 45.2711 7.12765 45.2891 6.92224C45.3071 6.71683 45.2739 6.51016 45.1925 6.32072L43.6228 2.65839C43.516 2.40979 43.3315 2.20249 43.097 2.06752C42.8624 1.93256 42.5905 1.87719 42.3219 1.90971C41.2663 2.04543 40.2962 2.5608 39.5929 3.35953C38.8896 4.15827 38.5011 5.18574 38.5 6.25C38.5 12.4533 43.5467 17.5 49.75 17.5C50.8143 17.4989 51.8418 17.1104 52.6405 16.4071C53.4392 15.7037 53.9546 14.7336 54.0903 13.6781C54.1227 13.4094 54.0673 13.1375 53.9323 12.903C53.7974 12.6685 53.5901 12.484 53.3415 12.3771Z" fill="#38403F"/>
<path d="M13.75 7.1875V14.6875C13.7496 15.0189 13.6178 15.3366 13.3835 15.571C13.1491 15.8053 12.8314 15.9371 12.5 15.9375H3.75C2.92149 15.9366 2.12718 15.607 1.54134 15.0212C0.955492 14.4353 0.625948 13.641 0.625 12.8125V5.3125C0.625379 4.9811 0.757197 4.66337 0.991535 4.42904C1.22587 4.1947 1.5436 4.06288 1.875 4.0625H10.625C11.4535 4.06345 12.2478 4.39299 12.8337 4.97884C13.4195 5.56468 13.7491 6.35899 13.75 7.1875ZM19.0637 5.70946C18.969 5.65453 18.8616 5.62542 18.7521 5.62505C18.6427 5.62467 18.535 5.65304 18.4399 5.70732L15.3149 7.49306C15.2193 7.54772 15.1397 7.62671 15.0844 7.72201C15.0291 7.81731 15 7.92555 15 8.03574V11.9643C15 12.0745 15.0291 12.1827 15.0844 12.278C15.1397 12.3733 15.2193 12.4523 15.3149 12.5069L18.4399 14.2927C18.535 14.347 18.6426 14.3754 18.7521 14.375C18.8616 14.3746 18.969 14.3455 19.0637 14.2905C19.1584 14.2356 19.237 14.1567 19.2916 14.0619C19.3462 13.967 19.375 13.8595 19.375 13.75V6.25C19.375 6.14053 19.3463 6.03297 19.2916 5.93811C19.237 5.84324 19.1584 5.76439 19.0637 5.70946Z" fill="#38403F"/>
<circle cx="82" cy="4" r="2" fill="#38403F"/>
<circle cx="82" cy="10" r="2" fill="#38403F"/>
<circle cx="82" cy="16" r="2" fill="#38403F"/>
</svg>
