<svg width="20" height="23" viewBox="0 0 20 23" fill="none" xmlns="http://www.w3.org/2000/svg">
<path d="M6.80252 21.5993V18.0724C6.8025 17.1787 7.44956 16.4526 8.25103 16.447H11.1939C11.999 16.447 12.6516 17.1747 12.6516 18.0724V21.5891C12.6516 22.3643 13.2124 22.9942 13.9076 22.9999H15.9153C16.853 23.0026 17.7531 22.5891 18.4171 21.8507C19.081 21.1123 19.4541 20.1097 19.4541 19.0641V9.04568C19.4541 8.20106 19.1183 7.39988 18.5373 6.85799L11.7165 0.775405C10.5242 -0.288508 8.82128 -0.254139 7.66429 0.857187L0.990124 6.85799C0.381649 7.38391 0.0179718 8.18746 0 9.04568V19.0538C0 21.2332 1.58436 22.9999 3.53878 22.9999H5.50069C5.83538 23.0026 6.15721 22.8562 6.39474 22.5933C6.63227 22.3303 6.76585 21.9725 6.76585 21.5993H6.80252Z" fill="#52D1C6"/>
</svg>
