<svg width="22" height="23" viewBox="0 0 22 23" fill="none" xmlns="http://www.w3.org/2000/svg">
<path fill-rule="evenodd" clip-rule="evenodd" d="M16.3911 0.88391L16.3923 1.74598C19.7591 1.99425 21.9831 4.15287 21.9867 7.46322L22 17.1529C22.0048 20.7621 19.595 22.9828 15.7322 22.9885L6.29675 23C2.45813 23.0046 0.0181092 20.731 0.0132822 17.1115L8.12748e-06 7.53563C-0.00481881 4.20345 2.14076 2.05058 5.50755 1.75977L5.50634 0.897703C5.50513 0.391957 5.90336 0.0114969 6.43432 0.0114969C6.96528 0.0103474 7.3635 0.389658 7.36471 0.895405L7.36592 1.7L14.5339 1.69081L14.5327 0.886209C14.5315 0.380462 14.9297 0.00115203 15.4607 2.60531e-06C15.9796 -0.00114682 16.3899 0.378163 16.3911 0.88391ZM1.85959 7.8908L20.1296 7.86782V7.46552C20.0777 4.99425 18.7599 3.6977 16.3947 3.5046L16.3959 4.38966C16.3959 4.88391 15.9868 5.27586 15.4679 5.27586C14.937 5.27701 14.5375 4.88621 14.5375 4.39196L14.5363 3.46092L7.36833 3.47012L7.36954 4.4C7.36954 4.8954 6.97252 5.28621 6.44156 5.28621C5.9106 5.28736 5.51117 4.8977 5.51117 4.4023L5.50996 3.51724C3.15683 3.73908 1.85476 5.04023 1.85838 7.53333L1.85959 7.8908ZM14.9599 13.1149V13.1276C14.972 13.6563 15.4305 14.0575 15.9868 14.046C16.5299 14.0333 16.9631 13.5954 16.951 13.0667C16.9257 12.5609 16.49 12.1483 15.9482 12.1494C15.3931 12.1609 14.9587 12.5862 14.9599 13.1149ZM15.9567 18.2759C15.4016 18.2644 14.9539 17.8287 14.9527 17.3C14.9406 16.7713 15.3859 16.3333 15.941 16.3207H15.953C16.5202 16.3207 16.98 16.7563 16.98 17.2965C16.9812 17.8368 16.5226 18.2747 15.9567 18.2759ZM9.98815 13.1333C10.0123 13.6621 10.4721 14.0747 11.0272 14.0517C11.5702 14.0276 12.0034 13.5908 11.9793 13.0621C11.966 12.5448 11.5195 12.1425 10.9765 12.1437C10.4214 12.1667 9.98695 12.6046 9.98815 13.1333ZM11.032 18.2241C10.4769 18.2471 10.0183 17.8345 9.99298 17.3057C9.99298 16.777 10.4262 16.3402 10.9813 16.3161C11.5243 16.3149 11.972 16.7172 11.9841 17.2333C12.0094 17.7632 11.575 18.2 11.032 18.2241ZM5.01641 13.1736C5.04054 13.7023 5.50031 14.1161 6.0554 14.092C6.59844 14.069 7.03165 13.631 7.00631 13.1023C6.99424 12.5851 6.54775 12.1828 6.00351 12.1839C5.44842 12.2069 5.0152 12.6448 5.01641 13.1736ZM6.06023 18.2299C5.50513 18.254 5.04657 17.8402 5.02123 17.3115C5.02003 16.7828 5.45445 16.3448 6.00955 16.3218C6.55258 16.3207 7.00028 16.723 7.01235 17.2402C7.03769 17.769 6.60447 18.2069 6.06023 18.2299Z" fill="#52D1C6"/>
</svg>
