<svg width="24" height="24" viewBox="0 0 24 24" fill="none" xmlns="http://www.w3.org/2000/svg">
<path fill-rule="evenodd" clip-rule="evenodd" d="M21.8887 15.8957H17.8407C15.9437 15.8957 14.3997 14.3527 14.3987 12.4567C14.3987 10.5587 15.9427 9.01467 17.8407 9.01367H21.8887C22.3027 9.01367 22.6387 9.34967 22.6387 9.76367C22.6387 10.1777 22.3027 10.5137 21.8887 10.5137H17.8407C16.7697 10.5147 15.8987 11.3857 15.8987 12.4557C15.8987 13.5247 16.7707 14.3957 17.8407 14.3957H21.8887C22.3027 14.3957 22.6387 14.7317 22.6387 15.1457C22.6387 15.5597 22.3027 15.8957 21.8887 15.8957Z" fill="#52D1C6"/>
<path fill-rule="evenodd" clip-rule="evenodd" d="M18.2983 13.1436H17.9863C17.5723 13.1436 17.2363 12.8076 17.2363 12.3936C17.2363 11.9796 17.5723 11.6436 17.9863 11.6436H18.2983C18.7123 11.6436 19.0483 11.9796 19.0483 12.3936C19.0483 12.8076 18.7123 13.1436 18.2983 13.1436Z" fill="#52D1C6"/>
<mask id="mask0_2541_1338" style="mask-type:luminance" maskUnits="userSpaceOnUse" x="2" y="3" width="21" height="20">
<path fill-rule="evenodd" clip-rule="evenodd" d="M2 3H22.6386V22.1729H2V3Z" fill="white"/>
</mask>
<g mask="url(#mask0_2541_1338)">
<path fill-rule="evenodd" clip-rule="evenodd" d="M7.99751 4.5C5.51751 4.5 3.49951 6.518 3.49951 8.998V16.175C3.49951 18.655 5.51751 20.673 7.99751 20.673H16.6415C19.1215 20.673 21.1385 18.655 21.1385 16.175V8.998C21.1385 6.518 19.1215 4.5 16.6415 4.5H7.99751ZM16.6415 22.173H7.99751C4.69051 22.173 1.99951 19.482 1.99951 16.175V8.998C1.99951 5.69 4.69051 3 7.99751 3H16.6415C19.9485 3 22.6385 5.69 22.6385 8.998V16.175C22.6385 19.482 19.9485 22.173 16.6415 22.173Z" fill="#52D1C6"/>
</g>
<path fill-rule="evenodd" clip-rule="evenodd" d="M12.6846 9.03809H7.28564C6.87164 9.03809 6.53564 8.70209 6.53564 8.28809C6.53564 7.87409 6.87164 7.53809 7.28564 7.53809H12.6846C13.0986 7.53809 13.4346 7.87409 13.4346 8.28809C13.4346 8.70209 13.0986 9.03809 12.6846 9.03809Z" fill="#52D1C6"/>
</svg>
