<svg width="32" height="38" viewBox="0 0 32 38" fill="none" xmlns="http://www.w3.org/2000/svg">
<path d="M15.7772 21.2136C10.8813 21.0541 9.70712 16.8622 9.45579 15.5089C8.98446 15.3997 8.56451 15.133 8.26533 14.7527C7.92378 14.2821 7.76535 13.7032 7.81966 13.1242C7.78086 12.8123 7.80797 12.4956 7.89923 12.1948C7.9905 11.894 8.14388 11.6157 8.34947 11.3779C8.46552 11.2589 8.59895 11.1583 8.7452 11.0793C7.83525 9.61023 7.38708 7.90188 7.45867 6.17529C8.0254 2.12568 11.289 1.73158 12.3111 1.70878C12.7816 1.16161 13.3697 0.727915 14.0314 0.440158C15.271 -0.059841 16.641 -0.136178 17.9285 0.223021C20.4592 0.88366 22.1469 2.15065 22.9476 3.98926C24.0876 6.6025 23.0876 9.61039 22.5133 10.961C22.7324 11.0322 22.9342 11.1481 23.1061 11.3013C23.34 11.5388 23.5162 11.8268 23.6213 12.1431C23.7263 12.4594 23.7573 12.7956 23.7119 13.1258C23.7667 13.7048 23.6085 14.2838 23.2668 14.7544C22.9673 15.1345 22.5472 15.4012 22.0758 15.5105C21.8244 16.8622 20.653 21.0541 15.7772 21.2136ZM9.65229 11.9473C9.45977 11.9384 9.27143 12.0054 9.12791 12.1341C9.02855 12.2732 8.95777 12.4307 8.91966 12.5974C8.88155 12.7641 8.87687 12.9367 8.90589 13.1052C8.90816 13.1414 8.90688 13.1778 8.90209 13.2138C8.87258 13.5254 8.95305 13.8374 9.12954 14.0959C9.23962 14.2189 9.37315 14.3186 9.5223 14.3893C9.67145 14.4599 9.83321 14.5001 9.99809 14.5074C10.1222 14.522 10.2375 14.5791 10.3244 14.6689C10.4113 14.7587 10.4646 14.8757 10.4752 15.0003C10.4932 15.2022 10.9747 19.9711 15.7783 20.1285C20.5553 19.9711 21.039 15.2022 21.0569 14.9992C21.0677 14.8749 21.1211 14.7581 21.208 14.6685C21.295 14.5789 21.4101 14.522 21.534 14.5074C21.6989 14.5001 21.8607 14.46 22.0099 14.3893C22.159 14.3187 22.2925 14.2189 22.4026 14.0959C22.5798 13.8362 22.6603 13.5224 22.63 13.2094C22.6255 13.1745 22.6242 13.1393 22.6262 13.1041C22.6556 12.9301 22.649 12.7519 22.6069 12.5805C22.5648 12.4091 22.488 12.2481 22.3814 12.1075C22.2118 11.9826 22.0009 11.9274 21.7919 11.9533C21.6914 11.9711 21.588 11.9603 21.4934 11.922C21.3988 11.8837 21.317 11.8196 21.2572 11.7369C21.1974 11.6542 21.1621 11.5564 21.1554 11.4546C21.1487 11.3527 21.1708 11.2511 21.2192 11.1613C21.2393 11.1233 23.2277 7.34946 21.9498 4.41648C21.2881 2.90086 19.8436 1.84286 17.6554 1.27179C16.6037 0.974165 15.4832 1.0314 14.4673 1.43465C13.8894 1.68366 13.3856 2.07785 13.0049 2.57896C12.9501 2.6535 12.877 2.71265 12.7926 2.75069C12.7083 2.78873 12.6155 2.80436 12.5234 2.79609C12.3828 2.78469 9.05897 2.56973 8.53784 6.28548C8.53784 6.28548 8.38747 9.24126 10.0996 11.0326C10.1742 11.1106 10.2239 11.2091 10.2422 11.3155C10.2606 11.4218 10.2469 11.5313 10.2027 11.6298C10.1621 11.7308 10.0904 11.8163 9.998 11.874C9.9056 11.9316 9.79729 11.9585 9.68867 11.9506L9.65229 11.9473Z" fill="white"/>
<path d="M21.6974 11.9604C21.5573 11.9605 21.4226 11.9064 21.3214 11.8095C21.2203 11.7126 21.1605 11.5803 21.1546 11.4403C21.1481 11.2997 20.9798 8.02041 18.5316 7.70502C17.4118 7.84723 16.2748 7.75857 15.1905 7.4445C14.1063 7.13043 13.098 6.59761 12.2276 5.8789C11.5354 6.39948 9.94057 7.98187 10.2473 11.3567C10.2513 11.4949 10.2025 11.6293 10.1109 11.7328C10.0192 11.8362 9.89151 11.9007 9.75388 11.9132C9.61625 11.9258 9.47903 11.8853 9.37018 11.8002C9.26133 11.715 9.18906 11.5916 9.1681 11.455C8.71808 6.50371 11.8975 4.78507 12.0327 4.7145C12.1333 4.66199 12.2478 4.64233 12.3602 4.6583C12.4726 4.67427 12.5771 4.72506 12.6591 4.80352C13.4329 5.50433 14.3488 6.02977 15.3443 6.34391C16.3399 6.65805 17.3915 6.75348 18.4274 6.62368C18.4771 6.61564 18.5276 6.61381 18.5777 6.61825C21.3375 6.90541 22.1806 9.87042 22.2403 11.3953C22.2459 11.5389 22.1943 11.6789 22.0968 11.7845C21.9993 11.8902 21.8639 11.9528 21.7202 11.9587L21.6974 11.9604Z" fill="white"/>
<path d="M31.0386 38H0.542843C0.398872 38 0.260798 37.9428 0.158995 37.841C0.0571925 37.7392 0 37.6011 0 37.4571V31.4055C0.00388019 29.4928 0.76611 27.6598 2.11954 26.3083C3.47297 24.9568 5.30713 24.1972 7.2198 24.196H8.26206C8.40603 24.196 8.54411 24.2532 8.64591 24.355C8.74771 24.4568 8.8049 24.5949 8.8049 24.7389C8.8049 24.8828 8.74771 25.0209 8.64591 25.1227C8.54411 25.2245 8.40603 25.2817 8.26206 25.2817H7.2198C5.59498 25.2826 4.03681 25.9277 2.88692 27.0757C1.73703 28.2236 1.08928 29.7807 1.08568 31.4055V36.9143H30.4958V31.4055C30.4939 29.782 29.8481 28.2254 28.7001 27.0774C27.5521 25.9294 25.9956 25.2836 24.372 25.2817H23.2548C23.1109 25.2817 22.9728 25.2245 22.871 25.1227C22.7692 25.0209 22.712 24.8828 22.712 24.7389C22.712 24.5949 22.7692 24.4568 22.871 24.355C22.9728 24.2532 23.1109 24.196 23.2548 24.196H24.372C26.2832 24.1988 28.1154 24.9592 29.4669 26.3107C30.8183 27.6621 31.5788 29.4943 31.5815 31.4055V37.4571C31.5815 37.6011 31.5243 37.7392 31.4225 37.841C31.3207 37.9428 31.1826 38 31.0386 38Z" fill="white"/>
<path d="M17.6049 38C17.5268 38 17.4496 37.9831 17.3786 37.9506C17.3076 37.918 17.2444 37.8705 17.1934 37.8113C17.1425 37.752 17.1049 37.6825 17.0832 37.6074C17.0616 37.5324 17.0564 37.4535 17.0681 37.3762L19.265 22.8373C19.2766 22.7604 19.3046 22.6869 19.3471 22.6217C19.3897 22.5566 19.4457 22.5014 19.5114 22.4598C19.5772 22.4182 19.6511 22.3912 19.7282 22.3806C19.8052 22.3701 19.8837 22.3763 19.9582 22.3987L23.7494 23.5414C23.8249 23.5641 23.8945 23.6031 23.9534 23.6555C24.0124 23.7079 24.0591 23.7725 24.0906 23.8449C24.122 23.9172 24.1372 23.9955 24.1353 24.0743C24.1334 24.1532 24.1143 24.2306 24.0794 24.3013L22.5725 27.325L23.4465 28.3059C23.5239 28.3934 23.571 28.5037 23.5808 28.6202C23.5906 28.7366 23.5625 28.8532 23.5008 28.9524L18.0664 37.7427C18.0177 37.8213 17.9498 37.8862 17.8691 37.9312C17.7883 37.9763 17.6974 37.9999 17.6049 38ZM20.2453 23.619L18.5381 34.9172L22.3668 28.7288L21.5183 27.7761C21.4461 27.6951 21.3998 27.5944 21.3854 27.4869C21.371 27.3794 21.3891 27.2701 21.4374 27.173L22.8206 24.3969L20.2453 23.619Z" fill="white"/>
<path d="M13.9141 38C13.8216 38 13.7306 37.9764 13.6497 37.9314C13.5689 37.8863 13.5009 37.8214 13.4522 37.7427L8.01615 28.954C7.95438 28.8548 7.9263 28.7383 7.93608 28.6218C7.94586 28.5053 7.99298 28.3951 8.07044 28.3075L8.94441 27.3266L7.43748 24.303C7.40258 24.2323 7.3835 24.1548 7.38158 24.0759C7.37966 23.9971 7.39493 23.9188 7.42635 23.8465C7.45776 23.7741 7.50455 23.7095 7.56348 23.6571C7.6224 23.6047 7.69203 23.5658 7.76753 23.543L11.5587 22.4003C11.6332 22.378 11.7116 22.3719 11.7886 22.3825C11.8656 22.3931 11.9394 22.4201 12.0051 22.4616C12.0708 22.5032 12.1268 22.5584 12.1693 22.6235C12.2117 22.6886 12.2398 22.7621 12.2514 22.8389L14.4494 37.3779C14.4607 37.4549 14.4554 37.5334 14.4338 37.6082C14.4121 37.6829 14.3746 37.7522 14.3238 37.8112C14.2731 37.8702 14.2102 37.9176 14.1395 37.9501C14.0688 37.9827 13.992 37.9997 13.9141 38ZM9.15232 28.7271L12.981 34.9155L11.2737 23.619L8.6985 24.3953L10.0811 27.1713C10.1295 27.2684 10.1477 27.3777 10.1334 27.4852C10.1191 27.5927 10.0729 27.6934 10.0008 27.7744L9.15232 28.7271Z" fill="white"/>
<path d="M15.8 27.8787C14.6262 27.8778 13.4536 27.8068 12.2883 27.6659C12.2161 27.6593 12.1459 27.6382 12.0819 27.604C12.0179 27.5698 11.9614 27.5231 11.9158 27.4667C11.8701 27.4102 11.8363 27.3452 11.8162 27.2755C11.7961 27.2058 11.7902 27.1327 11.7989 27.0607C11.8075 26.9886 11.8305 26.919 11.8665 26.856C11.9025 26.793 11.9507 26.7379 12.0084 26.6938C12.0661 26.6498 12.132 26.6178 12.2023 26.5997C12.2726 26.5815 12.3457 26.5777 12.4175 26.5883C14.6361 26.8612 16.8797 26.8612 19.0983 26.5883C19.2398 26.573 19.3816 26.6139 19.4933 26.7022C19.6049 26.7904 19.6774 26.919 19.6952 27.0602C19.713 27.2014 19.6746 27.3439 19.5884 27.4571C19.5021 27.5703 19.3749 27.6451 19.234 27.6653C18.0949 27.8083 16.948 27.8795 15.8 27.8787Z" fill="white"/>
<path d="M19.8029 23.461C19.7184 23.4607 19.6351 23.4407 19.5597 23.4025C19.4844 23.3643 19.4189 23.3091 19.3686 23.2412C18.562 22.1506 18.4159 19.989 18.4024 19.7463C18.3941 19.6027 18.4432 19.4616 18.5388 19.3541C18.6345 19.2466 18.769 19.1815 18.9126 19.1731C19.0559 19.1664 19.1961 19.216 19.3033 19.3114C19.4104 19.4068 19.476 19.5403 19.4859 19.6834C19.519 20.2544 19.7199 21.8911 20.241 22.5957C20.3005 22.6764 20.3366 22.772 20.3451 22.8719C20.3537 22.9718 20.3344 23.0721 20.2895 23.1617C20.2445 23.2513 20.1756 23.3267 20.0904 23.3795C20.0051 23.4324 19.907 23.4606 19.8067 23.461H19.8029Z" fill="white"/>
<path d="M11.3099 23.2904C11.2096 23.2899 11.1115 23.2617 11.0262 23.2089C10.941 23.1561 10.8721 23.0807 10.8271 22.9911C10.7822 22.9014 10.7629 22.8011 10.7714 22.7012C10.78 22.6013 10.8161 22.5058 10.8756 22.4251C11.3978 21.7194 11.5981 20.0833 11.6313 19.5128C11.6354 19.4415 11.6535 19.3717 11.6846 19.3074C11.7157 19.2431 11.7592 19.1856 11.8125 19.1381C11.8658 19.0906 11.928 19.0541 11.9954 19.0307C12.0629 19.0072 12.1343 18.9973 12.2056 19.0014C12.2769 19.0055 12.3466 19.0237 12.4109 19.0548C12.4752 19.0859 12.5327 19.1293 12.5802 19.1827C12.6277 19.236 12.6642 19.2981 12.6877 19.3656C12.7111 19.433 12.7211 19.5044 12.7169 19.5757C12.7034 19.8184 12.5541 21.98 11.7507 23.0705C11.6997 23.1393 11.6333 23.1951 11.5567 23.2333C11.4801 23.2716 11.3955 23.2911 11.3099 23.2904Z" fill="white"/>
<path d="M26.7318 30.3915C26.5905 30.3916 26.4547 30.3365 26.3534 30.2381C26.252 30.1397 26.193 30.0056 26.1889 29.8644C26.0874 26.3294 24.7433 25.2171 24.7303 25.2063C24.6181 25.1172 24.5454 24.9877 24.5277 24.8456C24.5101 24.7035 24.5489 24.5601 24.6358 24.4463C24.7222 24.3334 24.8496 24.2591 24.9903 24.2396C25.1311 24.2201 25.2739 24.2569 25.3877 24.3421C25.4593 24.3963 27.1557 25.7138 27.2746 29.8329C27.2787 29.9767 27.2255 30.1163 27.1268 30.2209C27.0281 30.3255 26.8918 30.3867 26.748 30.391L26.7318 30.3915Z" fill="white"/>
<path d="M26.7345 33.5964C26.31 33.5965 25.8951 33.4708 25.5422 33.2351C25.1892 32.9993 24.9141 32.6642 24.7516 32.2721C24.5891 31.88 24.5465 31.4486 24.6292 31.0323C24.712 30.616 24.9163 30.2336 25.2164 29.9334C25.5165 29.6333 25.8988 29.4288 26.3151 29.346C26.7314 29.2632 27.1629 29.3056 27.555 29.468C27.9471 29.6304 28.2823 29.9054 28.5181 30.2583C28.7539 30.6112 28.8798 31.0261 28.8798 31.4506C28.8792 32.0194 28.653 32.5648 28.2508 32.9671C27.8487 33.3694 27.3033 33.5957 26.7345 33.5964ZM26.7345 30.3904C26.5248 30.3903 26.3197 30.4524 26.1453 30.5688C25.9709 30.6852 25.8349 30.8508 25.7546 31.0445C25.6743 31.2382 25.6532 31.4514 25.6941 31.6571C25.7349 31.8628 25.8358 32.0517 25.9841 32.2C26.1323 32.3484 26.3212 32.4494 26.5269 32.4903C26.7326 32.5313 26.9458 32.5103 27.1395 32.4301C27.3333 32.3499 27.4989 32.214 27.6154 32.0396C27.7319 31.8653 27.7941 31.6603 27.7941 31.4506C27.7938 31.1696 27.6821 30.9002 27.4835 30.7014C27.2848 30.5027 27.0155 30.3908 26.7345 30.3904Z" fill="white"/>
<path d="M4.43561 30.3915C4.29807 30.3918 4.16553 30.34 4.06477 30.2464C3.964 30.1527 3.90253 30.0244 3.89276 29.8872C3.59691 25.7209 5.89259 24.3893 5.99031 24.3345C6.1157 24.2637 6.26408 24.2456 6.40278 24.2843C6.54149 24.3229 6.65917 24.4151 6.72993 24.5405C6.80069 24.6659 6.81874 24.8142 6.78011 24.9529C6.74147 25.0916 6.64932 25.2093 6.52392 25.2801C6.44141 25.3289 4.73254 26.3837 4.97519 29.8106C4.98534 29.9543 4.93802 30.096 4.84365 30.2047C4.74928 30.3135 4.61559 30.3802 4.47198 30.3904L4.43561 30.3915Z" fill="white"/>
<path d="M3.3374 34.738C3.2534 34.7384 3.17046 34.7193 3.0951 34.6822C3.01974 34.6451 2.95403 34.591 2.90312 34.5241C2.63814 34.1762 2.44294 33.7802 2.32825 33.3581C2.07626 32.536 2.15893 31.6476 2.5583 30.886C2.95768 30.1245 3.64148 29.5513 4.46108 29.2912C4.84984 29.1818 5.25648 29.1511 5.65725 29.2006C6.05803 29.2502 6.44491 29.3792 6.7953 29.5799C7.40937 29.9347 7.90054 30.4685 8.20319 31.1098C8.50583 31.7512 8.60553 32.4697 8.48897 33.1692C8.46536 33.3112 8.3863 33.4381 8.26917 33.5218C8.15205 33.6055 8.00646 33.6393 7.86443 33.6157C7.7224 33.5921 7.59557 33.513 7.51184 33.3959C7.42811 33.2788 7.39433 33.1332 7.41794 32.9912C7.49762 32.5118 7.42995 32.0196 7.22388 31.5796C7.01782 31.1395 6.68306 30.7724 6.26386 30.5267C6.03783 30.3961 5.78806 30.312 5.52914 30.2791C5.27022 30.2462 5.00733 30.2652 4.75585 30.335C4.2119 30.517 3.76162 30.906 3.50269 31.4178C3.24375 31.9296 3.19703 32.5228 3.37268 33.0688C3.45123 33.3578 3.58507 33.6288 3.76679 33.8668C3.82792 33.9472 3.86538 34.0431 3.87496 34.1437C3.88454 34.2443 3.86585 34.3456 3.821 34.4361C3.77615 34.5267 3.70692 34.6029 3.6211 34.6562C3.53528 34.7096 3.43627 34.7379 3.33523 34.738H3.3374Z" fill="white"/>
<path d="M7.96081 33.6241C7.93964 33.6241 7.91793 33.6241 7.89622 33.6209L7.28443 33.5487C7.21361 33.5402 7.14513 33.518 7.08292 33.4831C7.02071 33.4482 6.96597 33.4014 6.92184 33.3454C6.87771 33.2894 6.84504 33.2252 6.82571 33.1566C6.80638 33.0879 6.80076 33.0161 6.80917 32.9453C6.81759 32.8745 6.83986 32.806 6.87474 32.7438C6.90961 32.6816 6.9564 32.6268 7.01243 32.5827C7.12558 32.4936 7.26951 32.453 7.41254 32.47L8.02433 32.5428C8.16172 32.5591 8.28768 32.6273 8.37649 32.7334C8.46529 32.8395 8.51023 32.9755 8.50212 33.1136C8.49401 33.2518 8.43347 33.3816 8.33286 33.4765C8.23225 33.5715 8.09917 33.624 7.96081 33.6241Z" fill="white"/>
<path d="M3.33741 34.7429C3.20996 34.7431 3.0865 34.6984 2.98868 34.6167C2.89085 34.535 2.8249 34.4215 2.80237 34.296C2.77985 34.1706 2.80218 34.0412 2.86547 33.9306C2.92875 33.8199 3.02895 33.7351 3.1485 33.6909L3.79992 33.4504C3.86675 33.4255 3.93784 33.4139 4.00913 33.4164C4.08042 33.419 4.15052 33.4355 4.21542 33.4651C4.28032 33.4947 4.33875 33.5368 4.38738 33.589C4.43601 33.6412 4.47388 33.7025 4.49883 33.7693C4.52378 33.8362 4.53532 33.9073 4.5328 33.9785C4.53027 34.0498 4.51373 34.1199 4.48411 34.1848C4.4545 34.2497 4.41239 34.3082 4.3602 34.3568C4.308 34.4054 4.24674 34.4433 4.17991 34.4682L3.52849 34.7093C3.46734 34.7319 3.40261 34.7433 3.33741 34.7429Z" fill="white"/>
</svg>
