<svg width="35" height="35" viewBox="0 0 35 35" fill="none" xmlns="http://www.w3.org/2000/svg">
<g clip-path="url(#clip0_2541_1587)">
<path d="M32.375 35H2.625C1.17775 35 0 33.8223 0 32.375V2.625C0 1.17775 1.17775 0 2.625 0H32.375C33.8223 0 35 1.17775 35 2.625V32.375C35 33.8223 33.8223 35 32.375 35ZM2.625 1.16667C1.82117 1.16667 1.16667 1.82117 1.16667 2.625V32.375C1.16667 33.1788 1.82117 33.8333 2.625 33.8333H32.375C33.1794 33.8333 33.8333 33.1788 33.8333 32.375V2.625C33.8333 1.82117 33.1788 1.16667 32.375 1.16667H2.625Z" fill="white"/>
<path d="M5.25004 5.83337H2.91671C2.59471 5.83337 2.33337 5.57204 2.33337 5.25004V2.91671C2.33337 2.59471 2.59471 2.33337 2.91671 2.33337H5.25004C5.57204 2.33337 5.83337 2.59471 5.83337 2.91671V5.25004C5.83337 5.57204 5.57204 5.83337 5.25004 5.83337ZM3.50004 4.66671H4.66671V3.50004H3.50004V4.66671Z" fill="white"/>
<path d="M9.91667 5.83337H7.58333C7.26133 5.83337 7 5.57204 7 5.25004V2.91671C7 2.59471 7.26133 2.33337 7.58333 2.33337H9.91667C10.2387 2.33337 10.5 2.59471 10.5 2.91671V5.25004C10.5 5.57204 10.2387 5.83337 9.91667 5.83337ZM8.16667 4.66671H9.33333V3.50004H8.16667V4.66671Z" fill="white"/>
<path d="M14.5833 5.83337H12.25C11.928 5.83337 11.6666 5.57204 11.6666 5.25004V2.91671C11.6666 2.59471 11.928 2.33337 12.25 2.33337H14.5833C14.9053 2.33337 15.1666 2.59471 15.1666 2.91671V5.25004C15.1666 5.57204 14.9053 5.83337 14.5833 5.83337ZM12.8333 4.66671H14V3.50004H12.8333V4.66671Z" fill="white"/>
<path d="M34.4167 8.16667H0.583333C0.261333 8.16667 0 7.90533 0 7.58333V2.625C0 1.17775 1.17775 0 2.625 0H32.375C33.8223 0 35 1.17775 35 2.625V7.58333C35 7.90533 34.7387 8.16667 34.4167 8.16667ZM1.16667 7H33.8333V2.625C33.8333 1.82117 33.1788 1.16667 32.375 1.16667H2.625C1.82117 1.16667 1.16667 1.82117 1.16667 2.625V7Z" fill="white"/>
<path d="M15.75 22.1667H2.91671C2.59471 22.1667 2.33337 21.9054 2.33337 21.5834V9.91671C2.33337 9.59471 2.59471 9.33337 2.91671 9.33337H15.75C16.072 9.33337 16.3334 9.59471 16.3334 9.91671V21.5834C16.3334 21.9054 16.072 22.1667 15.75 22.1667ZM3.50004 21H15.1667V10.5H3.50004V21Z" fill="white"/>
<path d="M9.33327 22.1667C9.18394 22.1667 9.03461 22.1095 8.92086 21.9958L5.83327 18.9082L3.32903 21.4124C3.10094 21.6405 2.73228 21.6405 2.50419 21.4124C2.27611 21.1844 2.27611 20.8157 2.50419 20.5876L5.42086 17.6709C5.64894 17.4429 6.01761 17.4429 6.24569 17.6709L9.74569 21.1709C9.97377 21.399 9.97377 21.7677 9.74569 21.9958C9.63194 22.1095 9.48261 22.1667 9.33327 22.1667Z" fill="white"/>
<path d="M6.99996 16.3333C5.71313 16.3333 4.66663 15.2868 4.66663 14C4.66663 12.7131 5.71313 11.6666 6.99996 11.6666C8.28679 11.6666 9.33329 12.7131 9.33329 14C9.33329 15.2868 8.28679 16.3333 6.99996 16.3333ZM6.99996 12.8333C6.35654 12.8333 5.83329 13.3565 5.83329 14C5.83329 14.6434 6.35654 15.1666 6.99996 15.1666C7.64338 15.1666 8.16663 14.6434 8.16663 14C8.16663 13.3565 7.64338 12.8333 6.99996 12.8333Z" fill="white"/>
<path d="M15.75 21C15.6007 21 15.4513 20.9429 15.3376 20.8291L11.6847 17.1763L8.47291 20.6774C8.25533 20.9154 7.88666 20.9312 7.64866 20.713C7.41125 20.4954 7.39491 20.1262 7.61308 19.8888L11.2362 15.939C11.3435 15.8218 11.4946 15.7535 11.6532 15.75C11.8142 15.743 11.9659 15.8084 12.0785 15.9209L16.1618 20.0043C16.3899 20.2324 16.3899 20.601 16.1618 20.8291C16.0487 20.9429 15.8993 21 15.75 21Z" fill="white"/>
<path d="M32.0833 32.6667H19.25C18.928 32.6667 18.6666 32.4054 18.6666 32.0834V20.4167C18.6666 20.0947 18.928 19.8334 19.25 19.8334H32.0833C32.4053 19.8334 32.6666 20.0947 32.6666 20.4167V32.0834C32.6666 32.4054 32.4053 32.6667 32.0833 32.6667ZM19.8333 31.5H31.5V21H19.8333V31.5Z" fill="white"/>
<path d="M25.6666 32.6667C25.5173 32.6667 25.368 32.6095 25.2542 32.4958L22.1667 29.4082L19.6624 31.9124C19.4343 32.1405 19.0656 32.1405 18.8376 31.9124C18.6095 31.6844 18.6095 31.3157 18.8376 31.0876L21.7542 28.1709C21.9823 27.9429 22.351 27.9429 22.5791 28.1709L26.0791 31.6709C26.3072 31.899 26.3072 32.2677 26.0791 32.4958C25.9653 32.6095 25.816 32.6667 25.6666 32.6667Z" fill="white"/>
<path d="M23.3333 26.8333C22.0465 26.8333 21 25.7868 21 24.5C21 23.2131 22.0465 22.1666 23.3333 22.1666C24.6202 22.1666 25.6667 23.2131 25.6667 24.5C25.6667 25.7868 24.6202 26.8333 23.3333 26.8333ZM23.3333 23.3333C22.6899 23.3333 22.1667 23.8565 22.1667 24.5C22.1667 25.1434 22.6899 25.6666 23.3333 25.6666C23.9767 25.6666 24.5 25.1434 24.5 24.5C24.5 23.8565 23.9767 23.3333 23.3333 23.3333Z" fill="white"/>
<path d="M32.0834 31.5C31.934 31.5 31.7847 31.4428 31.671 31.329L28.0181 27.6762L24.8063 31.1774C24.5887 31.4154 24.22 31.4311 23.982 31.213C23.7446 30.9954 23.7283 30.6261 23.9465 30.3887L27.5695 26.4389C27.6769 26.3217 27.828 26.2534 27.9866 26.2499C28.1424 26.2435 28.2993 26.3083 28.4119 26.4209L32.4952 30.5042C32.7233 30.7323 32.7233 31.101 32.4952 31.329C32.382 31.4428 32.2327 31.5 32.0834 31.5Z" fill="white"/>
<path d="M28.5833 12.8333H19.25C18.928 12.8333 18.6666 12.572 18.6666 12.25C18.6666 11.928 18.928 11.6666 19.25 11.6666H28.5833C28.9053 11.6666 29.1666 11.928 29.1666 12.25C29.1666 12.572 28.9053 12.8333 28.5833 12.8333Z" fill="white"/>
<path d="M32.0834 12.8333H30.9167C30.5947 12.8333 30.3334 12.572 30.3334 12.25C30.3334 11.928 30.5947 11.6666 30.9167 11.6666H32.0834C32.4054 11.6666 32.6667 11.928 32.6667 12.25C32.6667 12.572 32.4054 12.8333 32.0834 12.8333Z" fill="white"/>
<path d="M28.5833 17.5H19.25C18.928 17.5 18.6666 17.2387 18.6666 16.9167C18.6666 16.5947 18.928 16.3334 19.25 16.3334H28.5833C28.9053 16.3334 29.1666 16.5947 29.1666 16.9167C29.1666 17.2387 28.9053 17.5 28.5833 17.5Z" fill="white"/>
<path d="M32.0834 17.5H30.9167C30.5947 17.5 30.3334 17.2387 30.3334 16.9167C30.3334 16.5947 30.5947 16.3334 30.9167 16.3334H32.0834C32.4054 16.3334 32.6667 16.5947 32.6667 16.9167C32.6667 17.2387 32.4054 17.5 32.0834 17.5Z" fill="white"/>
<path d="M32.0833 15.1667H22.75C22.428 15.1667 22.1666 14.9053 22.1666 14.5833C22.1666 14.2613 22.428 14 22.75 14H32.0833C32.4053 14 32.6666 14.2613 32.6666 14.5833C32.6666 14.9053 32.4053 15.1667 32.0833 15.1667Z" fill="white"/>
<path d="M20.4166 15.1667H19.25C18.928 15.1667 18.6666 14.9053 18.6666 14.5833C18.6666 14.2613 18.928 14 19.25 14H20.4166C20.7386 14 21 14.2613 21 14.5833C21 14.9053 20.7386 15.1667 20.4166 15.1667Z" fill="white"/>
<path d="M12.25 25.6667H2.91671C2.59471 25.6667 2.33337 25.4053 2.33337 25.0833C2.33337 24.7613 2.59471 24.5 2.91671 24.5H12.25C12.572 24.5 12.8334 24.7613 12.8334 25.0833C12.8334 25.4053 12.572 25.6667 12.25 25.6667Z" fill="white"/>
<path d="M15.75 25.6667H14.5833C14.2613 25.6667 14 25.4053 14 25.0833C14 24.7613 14.2613 24.5 14.5833 24.5H15.75C16.072 24.5 16.3333 24.7613 16.3333 25.0833C16.3333 25.4053 16.072 25.6667 15.75 25.6667Z" fill="white"/>
<path d="M12.25 30.3333H2.91671C2.59471 30.3333 2.33337 30.072 2.33337 29.75C2.33337 29.428 2.59471 29.1666 2.91671 29.1666H12.25C12.572 29.1666 12.8334 29.428 12.8334 29.75C12.8334 30.072 12.572 30.3333 12.25 30.3333Z" fill="white"/>
<path d="M15.75 30.3333H14.5833C14.2613 30.3333 14 30.072 14 29.75C14 29.428 14.2613 29.1666 14.5833 29.1666H15.75C16.072 29.1666 16.3333 29.428 16.3333 29.75C16.3333 30.072 16.072 30.3333 15.75 30.3333Z" fill="white"/>
<path d="M15.75 28H6.41671C6.09471 28 5.83337 27.7387 5.83337 27.4167C5.83337 27.0947 6.09471 26.8334 6.41671 26.8334H15.75C16.072 26.8334 16.3334 27.0947 16.3334 27.4167C16.3334 27.7387 16.072 28 15.75 28Z" fill="white"/>
<path d="M4.08337 28H2.91671C2.59471 28 2.33337 27.7387 2.33337 27.4167C2.33337 27.0947 2.59471 26.8334 2.91671 26.8334H4.08337C4.40538 26.8334 4.66671 27.0947 4.66671 27.4167C4.66671 27.7387 4.40538 28 4.08337 28Z" fill="white"/>
</g>
<defs>
<clipPath id="clip0_2541_1587">
<rect width="35" height="35" fill="white"/>
</clipPath>
</defs>
</svg>
