<svg width="40" height="40" viewBox="0 0 40 40" fill="none" xmlns="http://www.w3.org/2000/svg">
<g clip-path="url(#clip0_2541_1567)">
<path d="M24.6484 5.44694C24.9721 5.44694 25.2344 5.1846 25.2344 4.86101V3.09155C25.2344 2.76796 24.9721 2.50562 24.6484 2.50562C24.3248 2.50562 24.0625 2.76796 24.0625 3.09155V4.86101C24.0625 5.1846 24.3248 5.44694 24.6484 5.44694ZM21.7653 5.55569C21.9259 5.84054 22.2859 5.93468 22.5635 5.77812C22.8454 5.61913 22.945 5.26179 22.786 4.97991L22.043 3.66272C21.8841 3.38093 21.5266 3.2814 21.2448 3.4403C20.9629 3.59929 20.8633 3.95663 21.0223 4.23851L21.7653 5.55569ZM26.7334 5.77812C27.0104 5.93429 27.371 5.84054 27.5316 5.55569L28.2747 4.23851C28.4337 3.95663 28.3341 3.59929 28.0522 3.4403C27.7705 3.28132 27.413 3.38093 27.254 3.66272L26.5109 4.97991C26.352 5.26179 26.4515 5.61913 26.7334 5.77812ZM37.997 21.873L33.247 20.2902C32.9777 20.2005 32.7611 19.9979 32.6528 19.7343L30.006 13.2946C29.553 12.1916 28.4894 11.4789 27.296 11.4789H27.2656V10.4241C27.2656 8.98093 26.0916 7.80686 24.6484 7.80686C23.2053 7.80686 22.0312 8.98093 22.0312 10.4241V11.4789H18.0499C18.0489 11.4789 18.0479 11.4787 18.0469 11.4787C18.0459 11.4787 18.0448 11.4789 18.0438 11.4789H2.92969C1.31422 11.4789 0 12.7931 0 14.4086V18.2756C0 18.5992 0.262266 18.8615 0.585938 18.8615C0.909609 18.8615 1.17188 18.5992 1.17188 18.2756V14.4086C1.17188 13.4393 1.96047 12.6508 2.92969 12.6508H17.4609V25.3069H1.17188V21.01C1.17188 20.6864 0.909609 20.4241 0.585938 20.4241C0.262266 20.4241 0 20.6864 0 21.01V30.2289C0 31.8444 1.31422 33.1586 2.92969 33.1586H4.43062C4.72148 35.597 6.80086 37.4944 9.31641 37.4944C11.832 37.4944 13.9113 35.597 14.2022 33.1586H24.8798C25.1707 35.597 27.2501 37.4944 29.7656 37.4944C32.2812 37.4944 34.3605 35.597 34.6514 33.1586H37.0703C38.6858 33.1586 40 31.8444 40 30.2289V24.6523C40 23.389 39.195 22.272 37.997 21.873ZM9.31641 36.3225C7.24859 36.3225 5.56641 34.6402 5.56641 32.5725C5.56641 30.5048 7.24859 28.8225 9.31641 28.8225C11.3842 28.8225 13.0664 30.5048 13.0664 32.5725C13.0664 34.6402 11.3842 36.3225 9.31641 36.3225ZM17.4609 31.9867H14.2022C13.9115 29.5481 11.832 27.6506 9.31641 27.6506C6.80086 27.6506 4.72133 29.5481 4.43062 31.9867H2.92969C1.96047 31.9867 1.17188 31.1982 1.17188 30.2289V26.4787H17.4609V31.9867ZM23.2031 10.4241C23.2031 9.6271 23.8515 8.97874 24.6484 8.97874C25.4454 8.97874 26.0938 9.6271 26.0938 10.4241V11.4789H23.2031V10.4241ZM29.7656 36.3225C27.6978 36.3225 26.0156 34.6402 26.0156 32.5725C26.0156 30.5048 27.6978 28.8225 29.7656 28.8225C31.8334 28.8225 33.5156 30.5048 33.5156 32.5725C33.5156 34.6402 31.8334 36.3225 29.7656 36.3225ZM38.8281 25.3069H29.8909C29.5672 25.3069 29.3049 25.5692 29.3049 25.8928C29.3049 26.2164 29.5672 26.4787 29.8909 26.4787H38.8281V30.2289C38.8281 31.1982 38.0395 31.9867 37.0703 31.9867H34.6514C34.3607 29.5481 32.2812 27.6506 29.7656 27.6506C27.2501 27.6506 25.1705 29.5481 24.8798 31.9867H18.6328V26.4787H27.1565C27.4802 26.4787 27.7424 26.2164 27.7424 25.8928C27.7424 25.5692 27.4802 25.3069 27.1565 25.3069H18.6328V12.6508H27.2961C28.0121 12.6508 28.6504 13.0782 28.9221 13.7399L31.5689 20.1798C31.807 20.7589 32.2835 21.2043 32.8765 21.4019L37.6266 22.9848C38.3452 23.2241 38.8281 23.8943 38.8281 24.6523V25.3069ZM27.8296 14.4344C27.68 14.0627 27.3244 13.8225 26.9237 13.8225H20.7812C20.2427 13.8225 19.8047 14.2605 19.8047 14.7991V20.2287C19.8047 20.7673 20.2427 21.2053 20.7812 21.2053H29.1092C29.7834 21.2103 30.2724 20.4897 30.0152 19.864L27.8296 14.4344ZM20.9766 20.0334V14.9944H26.7917L28.8201 20.0334H20.9766ZM29.7656 30.8147C28.7964 30.8147 28.0078 31.6032 28.0078 32.5725C28.0078 33.5418 28.7964 34.3303 29.7656 34.3303C30.7348 34.3303 31.5234 33.5418 31.5234 32.5725C31.5234 31.6032 30.7348 30.8147 29.7656 30.8147ZM29.7656 33.1584C29.4425 33.1584 29.1797 32.8956 29.1797 32.5725C29.1797 32.2494 29.4425 31.9866 29.7656 31.9866C30.0888 31.9866 30.3516 32.2494 30.3516 32.5725C30.3516 32.8956 30.0888 33.1584 29.7656 33.1584ZM10.0195 13.8225H8.61328C8.03172 13.8225 7.55859 14.2956 7.55859 14.8772V17.2209H5.21484C4.63328 17.2209 4.16016 17.6941 4.16016 18.2756V19.6819C4.16016 20.2634 4.63328 20.7366 5.21484 20.7366H7.55859V23.0803C7.55859 23.6619 8.03172 24.135 8.61328 24.135H10.0195C10.6011 24.135 11.0742 23.6619 11.0742 23.0803V20.7366H13.418C13.9995 20.7366 14.4727 20.2634 14.4727 19.6819V18.2756C14.4727 17.6941 13.9995 17.2209 13.418 17.2209H11.0742V14.8772C11.0742 14.2956 10.6011 13.8225 10.0195 13.8225ZM13.3008 18.3928V19.5647H10.7227C10.2703 19.5647 9.90234 19.9326 9.90234 20.385V22.9631H8.73047V20.385C8.73047 19.9326 8.3625 19.5647 7.91016 19.5647H5.33203V18.3928H7.91016C8.3625 18.3928 8.73047 18.0248 8.73047 17.5725V14.9944H9.90234V17.5725C9.90234 18.0248 10.2703 18.3928 10.7227 18.3928H13.3008ZM9.31641 30.8147C8.34719 30.8147 7.55859 31.6032 7.55859 32.5725C7.55859 33.5418 8.34719 34.3303 9.31641 34.3303C10.2856 34.3303 11.0742 33.5418 11.0742 32.5725C11.0742 31.6032 10.2856 30.8147 9.31641 30.8147ZM9.31641 33.1584C8.99328 33.1584 8.73047 32.8956 8.73047 32.5725C8.73047 32.2494 8.99328 31.9866 9.31641 31.9866C9.63953 31.9866 9.90234 32.2494 9.90234 32.5725C9.90234 32.8956 9.63953 33.1584 9.31641 33.1584Z" fill="white"/>
</g>
<defs>
<clipPath id="clip0_2541_1567">
<rect width="40" height="40" fill="white"/>
</clipPath>
</defs>
</svg>
