<svg width="29" height="26" viewBox="0 0 29 26" fill="none" xmlns="http://www.w3.org/2000/svg">
<circle cx="18" cy="15" r="5" fill="white"/>
<path fill-rule="evenodd" clip-rule="evenodd" d="M4.16956 11.1777C4.16956 6.19446 8.7488 2.16675 14.2879 2.16675C19.8425 2.16675 24.4218 6.19446 24.4218 11.1777C24.4218 13.6887 23.4175 16.02 21.7646 17.996C19.941 20.1756 17.6935 22.0746 15.1636 23.5652C14.5846 23.9097 14.062 23.9357 13.4265 23.5652C10.8823 22.0746 8.63468 20.1756 6.82677 17.996C5.17262 16.02 4.16956 13.6887 4.16956 11.1777ZM10.9531 11.4582C10.9531 13.1276 12.4511 14.4406 14.2878 14.4406C16.1258 14.4406 17.6382 13.1276 17.6382 11.4582C17.6382 9.80186 16.1258 8.42499 14.2878 8.42499C12.4511 8.42499 10.9531 9.80186 10.9531 11.4582Z" fill="#FC6969"/>
</svg>
