<svg width="22" height="23" viewBox="0 0 22 23" fill="none" xmlns="http://www.w3.org/2000/svg">
<path fill-rule="evenodd" clip-rule="evenodd" d="M16.4329 0C17.908 0 19.327 0.649397 20.3709 1.81464C21.4159 2.97742 22 4.54578 22 6.18765V15.8673C22 19.2859 19.503 22.055 16.4329 22.055H5.566C2.4959 22.055 0 19.2859 0 15.8673V6.18765C0 2.76913 2.4849 0 5.566 0H16.4329ZM18.183 8.01331L18.271 7.91529C18.5339 7.55996 18.5339 7.04535 18.2589 6.69001C18.106 6.50745 17.8959 6.39595 17.677 6.37144C17.446 6.35796 17.226 6.44496 17.0599 6.6165L12.1 11.0275C11.462 11.6169 10.5479 11.6169 9.9 11.0275L4.95 6.6165C4.6079 6.33468 4.1349 6.37144 3.85 6.70227C3.553 7.03309 3.52 7.55996 3.7719 7.92754L3.916 8.08683L8.921 12.4366C9.537 12.9757 10.2839 13.2698 11.066 13.2698C11.8459 13.2698 12.606 12.9757 13.2209 12.4366L18.183 8.01331Z" fill="#52D1C6"/>
</svg>
