<svg width="21" height="25" viewBox="0 0 21 25" fill="none" xmlns="http://www.w3.org/2000/svg">
<path d="M7.57235 22.3849V18.8543C7.57234 17.9596 8.22008 17.2327 9.02241 17.2271H11.9684C12.7743 17.2271 13.4276 17.9556 13.4276 18.8543V18.8543V22.3747C13.4276 23.1507 13.9891 23.7813 14.685 23.7869H16.6949C17.6336 23.7897 18.5346 23.3757 19.1993 22.6366C19.8639 21.8974 20.2374 20.8937 20.2374 19.8469V9.8179C20.2374 8.97238 19.9013 8.17035 19.3196 7.62789L12.4915 1.53882C11.298 0.473778 9.59326 0.508183 8.43504 1.62069L1.75377 7.62789C1.14465 8.15436 0.780584 8.95877 0.762593 9.8179V19.8367C0.762593 22.0184 2.34864 23.7869 4.30514 23.7869H6.26914C6.60419 23.7897 6.92636 23.6432 7.16414 23.3799C7.40192 23.1167 7.53565 22.7585 7.53564 22.3849H7.57235Z" stroke="#8E9C9B" stroke-width="1.5"/>
</svg>
