<svg width="10" height="10" viewBox="0 0 10 10" fill="none" xmlns="http://www.w3.org/2000/svg">
<path d="M8.125 8.125H1.875C1.70924 8.125 1.55027 8.05915 1.43306 7.94194C1.31585 7.82473 1.25 7.66576 1.25 7.5V3.125C1.25 2.95924 1.31585 2.80027 1.43306 2.68306C1.55027 2.56585 1.70924 2.5 1.875 2.5H3.12477L3.74977 1.5625H6.24977L6.87477 2.5H8.125C8.29076 2.5 8.44973 2.56585 8.56694 2.68306C8.68415 2.80027 8.75 2.95924 8.75 3.125V7.5C8.75 7.66576 8.68415 7.82473 8.56694 7.94194C8.44973 8.05915 8.29076 8.125 8.125 8.125Z" stroke="#52D1C6" stroke-linecap="round" stroke-linejoin="round"/>
<path d="M5 6.5625C5.77665 6.5625 6.40625 5.9329 6.40625 5.15625C6.40625 4.3796 5.77665 3.75 5 3.75C4.22335 3.75 3.59375 4.3796 3.59375 5.15625C3.59375 5.9329 4.22335 6.5625 5 6.5625Z" stroke="#52D1C6" stroke-linecap="round" stroke-linejoin="round"/>
</svg>
