<svg width="16" height="16" viewBox="0 0 16 16" fill="none" xmlns="http://www.w3.org/2000/svg">
<path fill-rule="evenodd" clip-rule="evenodd" d="M5.93329 1.31178H10.0466C11.8533 1.31178 13.3133 2.01354 13.3333 3.79744V13.7532C13.3333 13.8647 13.3066 13.9761 13.2533 14.0745C13.1666 14.2319 13.0199 14.35 12.8399 14.4024C12.6666 14.4549 12.4733 14.4287 12.3133 14.3369L7.99328 12.2119L3.66662 14.3369C3.56729 14.3887 3.45329 14.4221 3.33996 14.4221C2.96662 14.4221 2.66662 14.1204 2.66662 13.7532V3.79744C2.66662 2.01354 4.13329 1.31178 5.93329 1.31178ZM5.47995 6.30932H10.4999C10.7866 6.30932 11.0199 6.07912 11.0199 5.7912C11.0199 5.50263 10.7866 5.27308 10.4999 5.27308H5.47995C5.19329 5.27308 4.95995 5.50263 4.95995 5.7912C4.95995 6.07912 5.19329 6.30932 5.47995 6.30932Z" fill="white"/>
</svg>
