<svg width="13" height="13" viewBox="0 0 13 13" fill="none" xmlns="http://www.w3.org/2000/svg">
<path fill-rule="evenodd" clip-rule="evenodd" d="M1.89587 5.58883C1.89587 3.09723 3.97798 1.08337 6.49649 1.08337C9.02211 1.08337 11.1042 3.09723 11.1042 5.58883C11.1042 6.84437 10.6476 8.01001 9.89602 8.99798C9.0669 10.0878 8.04496 11.0373 6.89467 11.7826C6.6314 11.9549 6.39381 11.9678 6.10487 11.7826C4.94802 11.0373 3.92609 10.0878 3.10406 8.99798C2.35195 8.01001 1.89587 6.84437 1.89587 5.58883ZM4.98025 5.7291C4.98025 6.56379 5.66135 7.22027 6.49649 7.22027C7.33217 7.22027 8.01983 6.56379 8.01983 5.7291C8.01983 4.90092 7.33217 4.21248 6.49649 4.21248C5.66135 4.21248 4.98025 4.90092 4.98025 5.7291Z" fill="#8E9C9B"/>
</svg>
