<svg width="15" height="16" viewBox="0 0 15 16" fill="none" xmlns="http://www.w3.org/2000/svg">
<path d="M10.2023 4.24987L3.46632 10.8662C3.22371 11.1006 3.08741 11.4185 3.08741 11.75C3.08741 12.0815 3.22371 12.3995 3.46632 12.6339C3.70894 12.8683 4.038 13 4.38112 13C4.72423 13 5.05329 12.8683 5.29591 12.6339L13.3256 4.76762C13.5659 4.53548 13.7565 4.25989 13.8865 3.95659C14.0165 3.65328 14.0835 3.3282 14.0835 2.99991C14.0835 2.67161 14.0165 2.34653 13.8865 2.04323C13.7565 1.73992 13.5659 1.46433 13.3256 1.2322C13.0854 1.00006 12.8001 0.815913 12.4862 0.69028C12.1723 0.564647 11.8358 0.499985 11.4961 0.499985C11.1563 0.499985 10.8198 0.564647 10.5059 0.69028C10.192 0.815913 9.90673 1.00006 9.66647 1.2322L1.63674 9.09845C0.908888 9.80169 0.499985 10.7555 0.499985 11.75C0.499985 12.7446 0.908888 13.6984 1.63674 14.4016C2.3646 15.1048 3.35178 15.4999 4.38112 15.4999C5.41046 15.4999 6.39764 15.1048 7.12549 14.4016L13.76 7.99976" stroke="#8E9C9B" stroke-linecap="round" stroke-linejoin="round"/>
</svg>
