<svg width="270" height="268" viewBox="0 0 270 268" fill="none" xmlns="http://www.w3.org/2000/svg">
<circle cx="123.08" cy="91" r="5" fill="white"/>
<path fill-rule="evenodd" clip-rule="evenodd" d="M109.912 91.0468C109.912 84.3387 115.219 78.9167 121.638 78.9167C128.075 78.9167 133.382 84.3387 133.382 91.0468C133.382 94.4271 132.218 97.5654 130.302 100.225C128.189 103.159 125.584 105.716 122.653 107.722C121.982 108.186 121.376 108.221 120.64 107.722C117.691 105.716 115.087 103.159 112.991 100.225C111.074 97.5654 109.912 94.4271 109.912 91.0468ZM117.773 91.4245C117.773 93.6717 119.509 95.4392 121.638 95.4392C123.768 95.4392 125.52 93.6717 125.52 91.4245C125.52 89.1948 123.768 87.3413 121.638 87.3413C119.509 87.3413 117.773 89.1948 117.773 91.4245Z" fill="#52D1C6"/>
<path d="M208.713 93C208.713 144.113 169.495 185.5 121.173 185.5C72.8517 185.5 33.6332 144.113 33.6332 93C33.6332 41.8875 72.8517 0.5 121.173 0.5C169.495 0.5 208.713 41.8875 208.713 93Z" stroke="#52D1C6"/>
<path d="M25.06 254.5C25.06 261.706 19.5366 267.5 12.78 267.5C6.02341 267.5 0.5 261.706 0.5 254.5C0.5 247.294 6.02341 241.5 12.78 241.5C19.5366 241.5 25.06 247.294 25.06 254.5Z" fill="white" stroke="#52D1C6"/>
<g clip-path="url(#clip0_2541_799)">
<path d="M11.2272 248.516C11.2272 248.329 11.1571 248.15 11.0323 248.018C10.9074 247.887 10.7381 247.812 10.5616 247.812C10.3851 247.812 10.2158 247.887 10.0909 248.018C9.96609 248.15 9.89597 248.329 9.89597 248.516V248.984H11.2272V248.516Z" fill="#52D1C6"/>
<path d="M8.78656 256.367C8.45744 256.367 8.13571 256.47 7.86206 256.663C7.5884 256.857 7.37512 257.131 7.24917 257.452C7.12322 257.774 7.09026 258.127 7.15447 258.468C7.21868 258.809 7.37717 259.122 7.60989 259.368C7.84261 259.614 8.13912 259.781 8.46192 259.849C8.78471 259.917 9.1193 259.882 9.42337 259.749C9.72744 259.616 9.98733 259.391 10.1702 259.102C10.353 258.813 10.4506 258.473 10.4506 258.125C10.4501 257.659 10.2746 257.212 9.96268 256.883C9.65072 256.553 9.22774 256.368 8.78656 256.367ZM8.78656 258.828C8.65491 258.828 8.52622 258.787 8.41676 258.71C8.3073 258.632 8.22198 258.523 8.1716 258.394C8.12122 258.266 8.10804 258.124 8.13373 257.988C8.15941 257.851 8.2228 257.726 8.31589 257.628C8.40898 257.529 8.52759 257.463 8.6567 257.435C8.78582 257.408 8.91966 257.422 9.04128 257.475C9.16291 257.529 9.26687 257.619 9.34001 257.734C9.41315 257.85 9.45219 257.986 9.45219 258.125C9.45219 258.311 9.38206 258.49 9.25723 258.622C9.1324 258.754 8.9631 258.828 8.78656 258.828Z" fill="#52D1C6"/>
<path d="M17.2178 256.367C16.8887 256.367 16.5669 256.47 16.2933 256.663C16.0196 256.857 15.8063 257.131 15.6804 257.452C15.5544 257.774 15.5215 258.127 15.5857 258.468C15.6499 258.809 15.8084 259.122 16.0411 259.368C16.2738 259.614 16.5703 259.781 16.8931 259.849C17.2159 259.917 17.5505 259.882 17.8546 259.749C18.1586 259.616 18.4185 259.391 18.6014 259.102C18.7842 258.813 18.8818 258.473 18.8818 258.125C18.8813 257.659 18.7059 257.212 18.3939 256.883C18.0819 256.553 17.659 256.368 17.2178 256.367ZM17.2178 258.828C17.0861 258.828 16.9574 258.787 16.848 258.71C16.7385 258.632 16.6532 258.523 16.6028 258.394C16.5524 258.266 16.5393 258.124 16.5649 257.988C16.5906 257.851 16.654 257.726 16.7471 257.628C16.8402 257.529 16.9588 257.463 17.0879 257.435C17.217 257.408 17.3509 257.422 17.4725 257.475C17.5941 257.529 17.6981 257.619 17.7712 257.734C17.8444 257.85 17.8834 257.986 17.8834 258.125C17.8834 258.311 17.8133 258.49 17.6884 258.622C17.5636 258.754 17.3943 258.828 17.2178 258.828Z" fill="#52D1C6"/>
<path d="M19.4014 254.901L17.8918 254.103C17.634 253.683 16.481 251.805 16.151 251.349C16.1199 251.306 16.0799 251.271 16.034 251.247C15.9882 251.223 15.9377 251.211 15.8866 251.211H14.3172L13.7057 249.919C13.6233 249.743 13.496 249.596 13.3381 249.493C13.1803 249.39 12.9982 249.335 12.8127 249.336H6.45688C6.28041 249.336 6.11123 249.41 5.98644 249.542C5.86166 249.674 5.79147 249.853 5.79126 250.039V257.422C5.79155 257.702 5.89684 257.97 6.08402 258.167C6.2712 258.365 6.52499 258.476 6.7897 258.477H6.81796C6.76925 258.174 6.78364 257.864 6.86012 257.568C6.93661 257.272 7.07334 256.997 7.26079 256.762C7.44824 256.528 7.68188 256.339 7.94541 256.21C8.20894 256.081 8.49601 256.014 8.78657 256.014C9.07714 256.014 9.3642 256.081 9.62773 256.21C9.89126 256.339 10.1249 256.528 10.3124 256.762C10.4998 256.997 10.6365 257.272 10.713 257.568C10.7895 257.864 10.8039 258.174 10.7552 258.477H15.2492C15.2011 258.178 15.2143 257.872 15.288 257.58C15.3616 257.288 15.494 257.015 15.6761 256.782C15.8581 256.548 16.0857 256.359 16.3432 256.226C16.6008 256.093 16.8823 256.021 17.1687 256.014C17.4551 256.006 17.7396 256.064 18.003 256.183C18.2664 256.302 18.5025 256.479 18.6952 256.703C18.8879 256.927 19.0328 257.192 19.1199 257.481C19.2071 257.769 19.2345 258.074 19.2003 258.374C19.3706 258.288 19.5143 258.153 19.615 257.985C19.7157 257.816 19.7692 257.621 19.7694 257.422V255.53C19.7698 255.399 19.7355 255.271 19.6705 255.16C19.6055 255.049 19.5122 254.959 19.4014 254.901ZM12.3366 253.32C12.3366 253.414 12.3015 253.503 12.2391 253.569C12.1767 253.635 12.092 253.672 12.0038 253.672H11.2272V254.492C11.2272 254.585 11.1921 254.675 11.1297 254.741C11.0673 254.807 10.9827 254.844 10.8944 254.844H10.2288C10.1405 254.844 10.0558 254.807 9.99343 254.741C9.93101 254.675 9.89595 254.585 9.89595 254.492V253.672H9.11938C9.03112 253.672 8.94647 253.635 8.88405 253.569C8.82164 253.503 8.78657 253.414 8.78657 253.32V252.617C8.78657 252.524 8.82164 252.435 8.88405 252.369C8.94647 252.303 9.03112 252.266 9.11938 252.266H9.89595V251.445C9.89595 251.352 9.93101 251.263 9.99343 251.197C10.0558 251.131 10.1405 251.094 10.2288 251.094H10.8944C10.9827 251.094 11.0673 251.131 11.1297 251.197C11.1921 251.263 11.2272 251.352 11.2272 251.445V252.266H12.0038C12.092 252.266 12.1767 252.303 12.2391 252.369C12.3015 252.435 12.3366 252.524 12.3366 252.617V253.32ZM15.4428 255.664H15.0268C14.9385 255.664 14.8539 255.627 14.7915 255.561C14.7291 255.495 14.694 255.406 14.694 255.313C14.694 255.219 14.7291 255.13 14.7915 255.064C14.8539 254.998 14.9385 254.961 15.0268 254.961H15.4428C15.5311 254.961 15.6157 254.998 15.6782 255.064C15.7406 255.13 15.7756 255.219 15.7756 255.313C15.7756 255.406 15.7406 255.495 15.6782 255.561C15.6157 255.627 15.5311 255.664 15.4428 255.664ZM17.1826 254.17H14.9991C14.9108 254.17 14.8262 254.133 14.7637 254.067C14.7013 254.001 14.6663 253.912 14.6663 253.818V252.031C14.6663 251.938 14.7013 251.849 14.7637 251.783C14.8262 251.717 14.9108 251.68 14.9991 251.68H15.7562C15.8104 251.68 15.8638 251.694 15.9118 251.72C15.9597 251.747 16.0007 251.786 16.0313 251.833C16.4334 252.456 17.0262 253.416 17.3224 253.899C17.3386 253.925 17.3478 253.956 17.349 253.987C17.3501 254.019 17.3432 254.05 17.3289 254.078C17.3146 254.106 17.2934 254.129 17.2677 254.145C17.2419 254.161 17.2125 254.17 17.1826 254.17Z" fill="#52D1C6"/>
</g>
<path d="M269.3 133.5C269.3 140.706 263.777 146.5 257.02 146.5C250.264 146.5 244.74 140.706 244.74 133.5C244.74 126.294 250.264 120.5 257.02 120.5C263.777 120.5 269.3 126.294 269.3 133.5Z" fill="white" stroke="#52D1C6"/>
<g clip-path="url(#clip1_2541_799)">
<path d="M255.467 127.516C255.467 127.329 255.397 127.15 255.272 127.018C255.147 126.887 254.978 126.812 254.801 126.812C254.625 126.812 254.456 126.887 254.331 127.018C254.206 127.15 254.136 127.329 254.136 127.516V127.984H255.467V127.516Z" fill="#52D1C6"/>
<path d="M253.026 135.367C252.697 135.367 252.376 135.47 252.102 135.663C251.828 135.857 251.615 136.131 251.489 136.452C251.363 136.774 251.33 137.127 251.394 137.468C251.459 137.809 251.617 138.122 251.85 138.368C252.082 138.614 252.379 138.781 252.702 138.849C253.025 138.917 253.359 138.882 253.663 138.749C253.967 138.616 254.227 138.391 254.41 138.102C254.593 137.813 254.69 137.473 254.69 137.125C254.69 136.659 254.515 136.212 254.203 135.883C253.891 135.553 253.468 135.368 253.026 135.367ZM253.026 137.828C252.895 137.828 252.766 137.787 252.657 137.71C252.547 137.632 252.462 137.523 252.411 137.394C252.361 137.266 252.348 137.124 252.374 136.988C252.399 136.851 252.463 136.726 252.556 136.628C252.649 136.529 252.767 136.463 252.897 136.435C253.026 136.408 253.16 136.422 253.281 136.475C253.403 136.529 253.507 136.619 253.58 136.734C253.653 136.85 253.692 136.986 253.692 137.125C253.692 137.311 253.622 137.49 253.497 137.622C253.372 137.754 253.203 137.828 253.026 137.828Z" fill="#52D1C6"/>
<path d="M261.458 135.367C261.129 135.367 260.807 135.47 260.533 135.663C260.26 135.857 260.046 136.131 259.92 136.452C259.794 136.774 259.761 137.127 259.826 137.468C259.89 137.809 260.048 138.122 260.281 138.368C260.514 138.614 260.81 138.781 261.133 138.849C261.456 138.917 261.79 138.882 262.094 138.749C262.399 138.616 262.658 138.391 262.841 138.102C263.024 137.813 263.122 137.473 263.122 137.125C263.121 136.659 262.946 136.212 262.634 135.883C262.322 135.553 261.899 135.368 261.458 135.367ZM261.458 137.828C261.326 137.828 261.197 137.787 261.088 137.71C260.978 137.632 260.893 137.523 260.843 137.394C260.792 137.266 260.779 137.124 260.805 136.988C260.831 136.851 260.894 136.726 260.987 136.628C261.08 136.529 261.199 136.463 261.328 136.435C261.457 136.408 261.591 136.422 261.712 136.475C261.834 136.529 261.938 136.619 262.011 136.734C262.084 136.85 262.123 136.986 262.123 137.125C262.123 137.311 262.053 137.49 261.928 137.622C261.804 137.754 261.634 137.828 261.458 137.828Z" fill="#52D1C6"/>
<path d="M263.641 133.901L262.132 133.103C261.874 132.683 260.721 130.805 260.391 130.349C260.36 130.306 260.32 130.271 260.274 130.247C260.228 130.223 260.178 130.211 260.126 130.211H258.557L257.946 128.919C257.863 128.743 257.736 128.596 257.578 128.493C257.42 128.39 257.238 128.335 257.053 128.336H250.697C250.52 128.336 250.351 128.41 250.226 128.542C250.102 128.674 250.031 128.853 250.031 129.039V136.422C250.031 136.702 250.137 136.97 250.324 137.167C250.511 137.365 250.765 137.476 251.03 137.477H251.058C251.009 137.174 251.024 136.864 251.1 136.568C251.176 136.272 251.313 135.997 251.501 135.762C251.688 135.528 251.922 135.339 252.185 135.21C252.449 135.081 252.736 135.014 253.026 135.014C253.317 135.014 253.604 135.081 253.868 135.21C254.131 135.339 254.365 135.528 254.552 135.762C254.74 135.997 254.876 136.272 254.953 136.568C255.029 136.864 255.044 137.174 254.995 137.477H259.489C259.441 137.178 259.454 136.872 259.528 136.58C259.601 136.288 259.734 136.015 259.916 135.782C260.098 135.548 260.326 135.359 260.583 135.226C260.841 135.093 261.122 135.021 261.409 135.014C261.695 135.006 261.98 135.064 262.243 135.183C262.506 135.302 262.742 135.479 262.935 135.703C263.128 135.927 263.273 136.192 263.36 136.481C263.447 136.769 263.474 137.074 263.44 137.374C263.61 137.288 263.754 137.153 263.855 136.985C263.956 136.816 264.009 136.621 264.009 136.422V134.53C264.01 134.399 263.975 134.271 263.91 134.16C263.845 134.049 263.752 133.959 263.641 133.901ZM256.576 132.32C256.576 132.414 256.541 132.503 256.479 132.569C256.417 132.635 256.332 132.672 256.244 132.672H255.467V133.492C255.467 133.585 255.432 133.675 255.37 133.741C255.307 133.807 255.223 133.844 255.134 133.844H254.469C254.38 133.844 254.296 133.807 254.233 133.741C254.171 133.675 254.136 133.585 254.136 133.492V132.672H253.359C253.271 132.672 253.186 132.635 253.124 132.569C253.062 132.503 253.026 132.414 253.026 132.32V131.617C253.026 131.524 253.062 131.435 253.124 131.369C253.186 131.303 253.271 131.266 253.359 131.266H254.136V130.445C254.136 130.352 254.171 130.263 254.233 130.197C254.296 130.131 254.38 130.094 254.469 130.094H255.134C255.223 130.094 255.307 130.131 255.37 130.197C255.432 130.263 255.467 130.352 255.467 130.445V131.266H256.244C256.332 131.266 256.417 131.303 256.479 131.369C256.541 131.435 256.576 131.524 256.576 131.617V132.32ZM259.683 134.664H259.267C259.178 134.664 259.094 134.627 259.031 134.561C258.969 134.495 258.934 134.406 258.934 134.313C258.934 134.219 258.969 134.13 259.031 134.064C259.094 133.998 259.178 133.961 259.267 133.961H259.683C259.771 133.961 259.856 133.998 259.918 134.064C259.98 134.13 260.016 134.219 260.016 134.313C260.016 134.406 259.98 134.495 259.918 134.561C259.856 134.627 259.771 134.664 259.683 134.664ZM261.422 133.17H259.239C259.151 133.17 259.066 133.133 259.004 133.067C258.941 133.001 258.906 132.912 258.906 132.818V131.031C258.906 130.938 258.941 130.849 259.004 130.783C259.066 130.717 259.151 130.68 259.239 130.68H259.996C260.05 130.68 260.104 130.694 260.152 130.72C260.2 130.747 260.241 130.786 260.271 130.833C260.673 131.456 261.266 132.416 261.562 132.899C261.579 132.925 261.588 132.956 261.589 132.987C261.59 133.019 261.583 133.05 261.569 133.078C261.554 133.106 261.533 133.129 261.508 133.145C261.482 133.161 261.452 133.17 261.422 133.17Z" fill="#52D1C6"/>
</g>
<defs>
<clipPath id="clip0_2541_799">
<rect width="14.2" height="15" fill="white" transform="translate(5.68033 245)"/>
</clipPath>
<clipPath id="clip1_2541_799">
<rect width="14.2" height="15" fill="white" transform="translate(249.92 124)"/>
</clipPath>
</defs>
</svg>
