<svg width="11" height="11" viewBox="0 0 11 11" fill="none" xmlns="http://www.w3.org/2000/svg">
<path d="M8.75426 6.50017C8.61183 6.6382 8.54639 6.83783 8.57884 7.0336L9.06772 9.73926C9.10897 9.96858 9.01218 10.2006 8.82025 10.3332C8.63218 10.4707 8.38196 10.4872 8.17684 10.3772L5.7412 9.10684C5.65651 9.06174 5.56247 9.03755 5.46623 9.0348H5.3172C5.26551 9.0425 5.21492 9.05899 5.16872 9.08429L2.73253 10.3607C2.6121 10.4212 2.47572 10.4426 2.34208 10.4212C2.01652 10.3596 1.7993 10.0494 1.85264 9.72221L2.34208 7.01655C2.37453 6.81913 2.30909 6.61841 2.16665 6.47817L0.180859 4.55342C0.0147798 4.39229 -0.0429628 4.15032 0.0329275 3.932C0.106618 3.71423 0.294694 3.5553 0.521815 3.51955L3.25497 3.12305C3.46284 3.1016 3.64542 2.97512 3.7389 2.78814L4.94325 0.318959C4.97185 0.263966 5.00869 0.213373 5.05324 0.170478L5.10273 0.131983C5.12858 0.103387 5.15827 0.0797398 5.19127 0.0604923L5.25121 0.0384951L5.3447 0H5.57622C5.78299 0.0214473 5.96502 0.145181 6.06016 0.329958L7.28045 2.78814C7.36844 2.96797 7.53947 3.09281 7.73689 3.12305L10.47 3.51955C10.701 3.55255 10.894 3.71203 10.9705 3.932C11.0425 4.15252 10.9804 4.39449 10.811 4.55342L8.75426 6.50017Z" fill="#52D1C6"/>
</svg>
